<svg data-v-423bf9ae="" xmlns="http://www.w3.org/2000/svg" viewBox="0 0 518 90" class="iconLeft"><!----><!----><!----><g data-v-423bf9ae="" id="1614b41b-c7c9-43f6-b403-ecb340d453a1" fill="#131619" transform="matrix(5.71973320392212,0,0,5.71973320392212,134.83374044997822,-3.817922022713269)"><path d="M7.64 9.70C7.64 7.67 6.44 5.94 4.16 5.94C1.88 5.94 0.38 7.60 0.38 9.88C0.38 12.50 1.96 13.78 4.00 13.78C5.75 13.78 7.15 12.89 7.53 11.16L5.60 11.16C5.47 11.96 4.87 12.42 4.05 12.42C3.15 12.42 2.45 11.93 2.32 10.36L7.62 10.36C7.64 10.11 7.64 9.88 7.64 9.70ZM4.07 7.29C5.00 7.29 5.53 7.92 5.66 9.10L2.38 9.10C2.55 7.87 3.18 7.29 4.07 7.29ZM16.03 6.13L13.94 6.13L12.11 12.12L10.23 6.13L8.09 6.13L10.99 13.58L13.15 13.58ZM21.22 13.58L23.11 13.58C23.00 12.75 22.97 12.25 22.97 11.69L22.97 9.28C22.97 8.88 22.96 8.48 22.93 8.13C22.82 6.85 22.04 5.94 19.95 5.94C18.17 5.94 16.81 6.89 16.76 8.57L18.63 8.55C18.69 7.74 19.11 7.29 19.88 7.29C20.64 7.29 20.97 7.67 21.03 8.19C21.06 8.44 21.06 8.67 21.06 8.89L21.06 9.04L20.58 9.04C17.88 9.04 16.48 9.97 16.48 11.61C16.48 13.02 17.58 13.78 18.87 13.78C19.57 13.78 20.20 13.64 20.72 13.29L21.08 12.49ZM19.61 12.42C18.93 12.42 18.48 12.11 18.48 11.45C18.48 10.47 19.52 10.12 21.06 10.23L21.06 10.84C21.06 11.87 20.40 12.42 19.61 12.42ZM28.34 3.72C26.49 3.72 24.88 4.77 24.88 6.55C24.88 8.33 26.12 9.02 28.10 9.49C29.53 9.83 30.03 10.30 30.03 11.12C30.03 11.86 29.33 12.33 28.45 12.33C27.47 12.33 26.66 11.79 26.45 10.72L24.47 10.72C24.65 12.75 26.17 13.78 28.48 13.78C30.38 13.78 32.05 12.74 32.05 10.92C32.05 9.37 31.09 8.39 28.97 7.90C27.43 7.53 26.91 7.13 26.91 6.31C26.91 5.53 27.50 5.17 28.27 5.17C29.27 5.17 29.82 5.78 29.93 6.76L31.91 6.76C31.70 5.04 30.65 3.72 28.34 3.72ZM35.59 7.46L37.13 7.46L37.13 6.19L35.59 6.19L35.59 4.35L33.66 4.35L33.66 6.19L32.56 6.19L32.56 7.46L33.66 7.46L33.66 11.13C33.66 11.55 33.66 11.87 33.68 12.21C33.77 13.26 34.29 13.73 35.73 13.73C36.16 13.73 36.57 13.71 37.00 13.64L37.00 12.38C35.92 12.46 35.66 12.29 35.60 11.56C35.59 11.37 35.59 11.16 35.59 10.91ZM45.21 6.13L43.27 6.13L43.27 9.93C43.27 11.61 42.60 12.40 41.64 12.40C40.74 12.40 40.29 11.91 40.19 11.14C40.15 10.77 40.14 10.36 40.14 10.12L40.14 6.13L38.21 6.13L38.21 10.53C38.21 11.13 38.22 11.51 38.28 11.89C38.44 12.91 39.37 13.78 40.91 13.78C41.62 13.78 42.15 13.64 42.70 13.27L43.27 12.32L43.27 13.58L45.21 13.58ZM54.22 3.29L52.29 3.29L52.29 7.13L51.80 6.36C51.42 6.09 50.67 5.94 50.05 5.94C48.13 5.94 46.48 7.29 46.48 10.00C46.48 12.19 47.71 13.78 49.80 13.78C50.55 13.78 51.31 13.58 51.73 13.26L52.29 12.43L52.29 13.58L54.22 13.58ZM50.36 12.42C49.21 12.42 48.48 11.40 48.48 9.87C48.48 8.15 49.31 7.29 50.43 7.29C51.32 7.29 52.29 7.90 52.29 9.58L52.29 9.94C52.29 11.76 51.42 12.42 50.36 12.42ZM56.98 3.36C56.35 3.36 55.92 3.78 55.92 4.38C55.92 5.00 56.35 5.40 56.98 5.40C57.61 5.40 58.04 5.00 58.04 4.38C58.04 3.78 57.61 3.36 56.98 3.36ZM57.95 13.58L57.95 6.13L56.01 6.13L56.01 13.58ZM63.10 5.94C60.62 5.94 59.23 7.59 59.23 9.86C59.23 12.11 60.62 13.78 63.10 13.78C65.58 13.78 66.96 12.11 66.96 9.86C66.96 7.59 65.58 5.94 63.10 5.94ZM63.10 12.42C61.94 12.42 61.24 11.45 61.24 9.86C61.24 8.25 61.94 7.29 63.10 7.29C64.26 7.29 64.96 8.25 64.96 9.86C64.96 11.45 64.26 12.42 63.10 12.42Z"></path></g><!----><g data-v-423bf9ae="" id="32a234b4-504b-46d3-b2d1-de05dd27e20c" transform="matrix(1.1700790931760066,0,0,1.1700790931760066,0.49637866698370203,-0.00004177665370264094)" stroke="none" fill="#131619"><path d="M97.113 61.594c-.1-.061-.209-.089-.312-.138C95.076 41.76 90.685 23.347 79.758 6.76c.388-2.356-.645-4.781-2.793-6.009-2.783-1.593-6.367-.568-8.001 2.29a6.132 6.132 0 0 0-.763 2.374C58.35 7.381 48.57 10.364 41.232 16.978c-.078-.051-.146-.116-.226-.163-2.786-1.594-6.37-.568-8.004 2.289a6.02 6.02 0 0 0-.775 3.511C20.88 28.845 10.54 36.524 5.067 48.164a5.985 5.985 0 0 0-4.261 2.943c-1.636 2.86-.702 6.467 2.083 8.062 2.785 1.592 6.368.567 8.002-2.292.061-.105.094-.223.148-.331 11.031-1.594 19.184 3.757 26.219 11.821-1.438 2.815-.504 6.255 2.2 7.802 2.781 1.591 6.368.565 8.001-2.294.408-.712.657-1.47.756-2.233 12.262-6.219 26.326-6.109 40.109-4.818-.022 2.058.985 4.051 2.865 5.122 2.782 1.592 6.367.569 8-2.29 1.642-2.861.709-6.469-2.076-8.062zM46.53 38.372c-1.284-3.933-3.009-7.837-5.011-11.697.462-.357.859-.808 1.215-1.302 11.376-.886 24.461 2.385 31.074 13.191a6.008 6.008 0 0 0-.481 1.458c-8.929-1.146-17.962-1.942-26.797-1.65zm24.515-27.271c1.15.658 2.429.848 3.656.667 2.532 7.642 2.956 15.547 2.401 23.733a5.874 5.874 0 0 0-.776.351C69.088 24.658 56.522 19.667 43.87 21.864a5.88 5.88 0 0 0-.366-2.045c6.832-6.308 16.196-9.031 25.454-10.842a5.594 5.594 0 0 0 2.087 2.124zm10.959 24.741a5.484 5.484 0 0 0-1.228-.508c.531-8.161.078-16.037-2.26-23.658 8.306 13.801 12.266 28.77 14.107 44.748-2.021-4.857-4.705-9.28-8.207-13.259 1.111-2.717.144-5.864-2.412-7.323zm-48.325-9.853c.401.45.855.859 1.404 1.173.925.531 1.941.747 2.945.725 1.863 3.529 3.494 7.087 4.737 10.673-11.771.829-23.094 3.829-33.217 10.785a5.527 5.527 0 0 0-.714-.512c5.189-10.34 14.599-17.209 24.845-22.844zM11.573 52.774c-.024-.126-.031-.253-.061-.379 9.788-6.812 20.861-9.605 32.343-10.294 2.039 7.553 2.138 15.228-1.167 22.993a5.872 5.872 0 0 0-2.898.675c-7.639-8.603-16.56-14.293-28.217-12.995zm35.87 15.125a5.572 5.572 0 0 0-1.294-1.531c3.459-8.204 3.464-16.372 1.422-24.419 8.696-.196 17.562.674 26.234 1.803a5.67 5.67 0 0 0 2.279 2.441c1.924 1.102 4.219.926 6.001-.217 3.977 4.677 6.77 10.083 8.693 16.044-.464.344-.873.77-1.235 1.25-14.379-1.402-29.202-1.609-42.1 4.629z"></path></g><!----></svg>