<svg data-v-423bf9ae="" xmlns="http://www.w3.org/2000/svg" viewBox="0 0 498 90" class="iconLeft"><!----><!----><!----><g data-v-423bf9ae="" id="110e2fca-afe7-4d69-afed-dc8be63b76b2" fill="#131619" transform="matrix(5.71973320392212,0,0,5.71973320392212,114.47729513747822,-3.817922022713269)"><path d="M7.64 9.70C7.64 7.67 6.44 5.94 4.16 5.94C1.88 5.94 0.38 7.60 0.38 9.88C0.38 12.50 1.96 13.78 4.00 13.78C5.75 13.78 7.15 12.89 7.53 11.16L5.60 11.16C5.47 11.96 4.87 12.42 4.05 12.42C3.15 12.42 2.45 11.93 2.32 10.36L7.62 10.36C7.64 10.11 7.64 9.88 7.64 9.70ZM4.07 7.29C5.00 7.29 5.53 7.92 5.66 9.10L2.38 9.10C2.55 7.87 3.18 7.29 4.07 7.29ZM16.03 6.13L13.94 6.13L12.11 12.12L10.23 6.13L8.09 6.13L10.99 13.58L13.15 13.58ZM21.22 13.58L23.11 13.58C23.00 12.75 22.97 12.25 22.97 11.69L22.97 9.28C22.97 8.88 22.96 8.48 22.93 8.13C22.82 6.85 22.04 5.94 19.95 5.94C18.17 5.94 16.81 6.89 16.76 8.57L18.63 8.55C18.69 7.74 19.11 7.29 19.88 7.29C20.64 7.29 20.97 7.67 21.03 8.19C21.06 8.44 21.06 8.67 21.06 8.89L21.06 9.04L20.58 9.04C17.88 9.04 16.48 9.97 16.48 11.61C16.48 13.02 17.58 13.78 18.87 13.78C19.57 13.78 20.20 13.64 20.72 13.29L21.08 12.49ZM19.61 12.42C18.93 12.42 18.48 12.11 18.48 11.45C18.48 10.47 19.52 10.12 21.06 10.23L21.06 10.84C21.06 11.87 20.40 12.42 19.61 12.42ZM28.34 3.72C26.49 3.72 24.88 4.77 24.88 6.55C24.88 8.33 26.12 9.02 28.10 9.49C29.53 9.83 30.03 10.30 30.03 11.12C30.03 11.86 29.33 12.33 28.45 12.33C27.47 12.33 26.66 11.79 26.45 10.72L24.47 10.72C24.65 12.75 26.17 13.78 28.48 13.78C30.38 13.78 32.05 12.74 32.05 10.92C32.05 9.37 31.09 8.39 28.97 7.90C27.43 7.53 26.91 7.13 26.91 6.31C26.91 5.53 27.50 5.17 28.27 5.17C29.27 5.17 29.82 5.78 29.93 6.76L31.91 6.76C31.70 5.04 30.65 3.72 28.34 3.72ZM35.59 7.46L37.13 7.46L37.13 6.19L35.59 6.19L35.59 4.35L33.66 4.35L33.66 6.19L32.56 6.19L32.56 7.46L33.66 7.46L33.66 11.13C33.66 11.55 33.66 11.87 33.68 12.21C33.77 13.26 34.29 13.73 35.73 13.73C36.16 13.73 36.57 13.71 37.00 13.64L37.00 12.38C35.92 12.46 35.66 12.29 35.60 11.56C35.59 11.37 35.59 11.16 35.59 10.91ZM45.21 6.13L43.27 6.13L43.27 9.93C43.27 11.61 42.60 12.40 41.64 12.40C40.74 12.40 40.29 11.91 40.19 11.14C40.15 10.77 40.14 10.36 40.14 10.12L40.14 6.13L38.21 6.13L38.21 10.53C38.21 11.13 38.22 11.51 38.28 11.89C38.44 12.91 39.37 13.78 40.91 13.78C41.62 13.78 42.15 13.64 42.70 13.27L43.27 12.32L43.27 13.58L45.21 13.58ZM54.22 3.29L52.29 3.29L52.29 7.13L51.80 6.36C51.42 6.09 50.67 5.94 50.05 5.94C48.13 5.94 46.48 7.29 46.48 10.00C46.48 12.19 47.71 13.78 49.80 13.78C50.55 13.78 51.31 13.58 51.73 13.26L52.29 12.43L52.29 13.58L54.22 13.58ZM50.36 12.42C49.21 12.42 48.48 11.40 48.48 9.87C48.48 8.15 49.31 7.29 50.43 7.29C51.32 7.29 52.29 7.90 52.29 9.58L52.29 9.94C52.29 11.76 51.42 12.42 50.36 12.42ZM56.98 3.36C56.35 3.36 55.92 3.78 55.92 4.38C55.92 5.00 56.35 5.40 56.98 5.40C57.61 5.40 58.04 5.00 58.04 4.38C58.04 3.78 57.61 3.36 56.98 3.36ZM57.95 13.58L57.95 6.13L56.01 6.13L56.01 13.58ZM63.10 5.94C60.62 5.94 59.23 7.59 59.23 9.86C59.23 12.11 60.62 13.78 63.10 13.78C65.58 13.78 66.96 12.11 66.96 9.86C66.96 7.59 65.58 5.94 63.10 5.94ZM63.10 12.42C61.94 12.42 61.24 11.45 61.24 9.86C61.24 8.25 61.94 7.29 63.10 7.29C64.26 7.29 64.96 8.25 64.96 9.86C64.96 11.45 64.26 12.42 63.10 12.42Z"></path></g><!----><g data-v-423bf9ae="" id="635ab24a-cc3f-4007-aeeb-838abbbcf5c7" transform="matrix(3.02033690133878,0,0,3.02033690133878,0.6746095785795205,-6.44676146975133)" stroke="none" fill="#131619"><circle cx="25.044" cy="25.043" r="6.956"></circle><circle cx="6.956" cy="25.043" r="6.956"></circle><path d="M.172 2.201H13.74v13.568H.172zM18.432 2.201H32v13.568H18.432z"></path></g><!----></svg>