<svg xmlns="http://www.w3.org/2000/svg" xmlns:xlink="http://www.w3.org/1999/xlink" version="1.1" id="Layer_1" x="0px" y="0px" viewBox="0 0 350 250" style="enable-background:new 0 0 350 250;" xml:space="preserve"><link xmlns="" type="text/css" rel="stylesheet" id="dark-mode-custom-link"/><link xmlns="" type="text/css" rel="stylesheet" id="dark-mode-general-link"/><style xmlns="" lang="en" type="text/css" id="dark-mode-custom-style"/><style xmlns="" lang="en" type="text/css" id="dark-mode-native-style"/><style xmlns="" lang="en" type="text/css" id="dark-mode-native-sheet"/>
<path style="fill-rule:evenodd;clip-rule:evenodd;fill:#FFBD58;" d="M227.9,98.89L163.03,61.4c-5.28-3.05-11.32-3.05-16.6,0  l-91.28,52.7c-1.98,1.14-3.11,3.11-3.11,5.39c0,2.29,1.13,4.25,3.11,5.39l63.84,36.89L227.9,98.89z"/>
<path style="fill-rule:evenodd;clip-rule:evenodd;fill:#E3E3E3;" d="M163.98,53.28c-5.17-2.98-11.08-2.98-16.25,0l-89.34,51.58  c-1.94,1.12-3.05,3.04-3.05,5.28v7.49c0,2.24,1.11,4.16,3.05,5.28l63.96,36.93l106.61-61.55V90.8L163.98,53.28z"/>
<path style="fill-rule:evenodd;clip-rule:evenodd;fill:#F0F9FF;" d="M228.95,90.8l-64.98-37.51c-5.17-2.98-11.08-2.98-16.25,0  l-89.34,51.58c-1.94,1.12-3.05,3.04-3.05,5.28c0,2.24,1.11,4.16,3.05,5.28l63.96,36.93L228.95,90.8z"/>
<path style="fill-rule:evenodd;clip-rule:evenodd;fill:#FFBD58;" d="M119.84,162.25l67.88,39.19c5.28,3.05,11.32,3.05,16.6,0  l91.28-52.7c1.98-1.14,3.11-3.11,3.11-5.39c0-2.29-1.13-4.25-3.11-5.39l-66.84-38.59L119.84,162.25z"/>
<g>
	<defs>
		<path id="SVGID_1_" d="M229.8,95.86l-106.61,61.55v2.92l64.98,37.51c5.17,2.98,11.08,2.98,16.25,0l89.34-51.58    c1.94-1.12,3.05-3.04,3.05-5.28v-2.92c0-2.24-1.11-4.16-3.05-5.28L229.8,95.86z"/>
	</defs>
	<use xlink:href="#SVGID_1_" style="overflow:visible;fill-rule:evenodd;clip-rule:evenodd;fill:#D3D3D3;"/>
	<clipPath id="SVGID_2_">
		<use xlink:href="#SVGID_1_" style="overflow:visible;"/>
	</clipPath>
	
		<rect x="118.62" y="87.89" transform="matrix(0.9955 -0.0945 0.0945 0.9955 -13.0786 20.5089)" style="clip-path:url(#SVGID_2_);fill:#D3D3D3;" width="182.76" height="120.91"/>
</g>
<path style="fill-rule:evenodd;clip-rule:evenodd;fill:#F0F9FF;" d="M123.19,157.41l64.98,37.51c5.17,2.98,11.08,2.98,16.25,0  l89.34-51.58c1.94-1.12,3.05-3.04,3.05-5.28c0-2.24-1.11-4.16-3.05-5.28L229.8,95.86L123.19,157.41z"/>
<g>
	<polygon style="fill-rule:evenodd;clip-rule:evenodd;fill:#CCE9FF;" points="227.1,100.32 229.98,101.98 232.86,100.32    229.98,98.66  "/>
	<polygon style="fill-rule:evenodd;clip-rule:evenodd;fill:#CCE9FF;" points="220.93,103.88 223.81,105.54 226.7,103.88    223.81,102.22  "/>
	<polygon style="fill-rule:evenodd;clip-rule:evenodd;fill:#CCE9FF;" points="214.77,107.44 217.65,109.1 220.53,107.44    217.65,105.78  "/>
	<polygon style="fill-rule:evenodd;clip-rule:evenodd;fill:#CCE9FF;" points="208.6,111 211.48,112.66 214.36,111 211.48,109.34     "/>
	<polygon style="fill-rule:evenodd;clip-rule:evenodd;fill:#CCE9FF;" points="202.43,114.56 205.31,116.22 208.2,114.56    205.31,112.9  "/>
	<polygon style="fill-rule:evenodd;clip-rule:evenodd;fill:#CCE9FF;" points="196.27,118.12 199.15,119.78 202.03,118.12    199.15,116.46  "/>
	<polygon style="fill-rule:evenodd;clip-rule:evenodd;fill:#CCE9FF;" points="190.1,121.68 192.98,123.35 195.86,121.68    192.98,120.02  "/>
	<polygon style="fill-rule:evenodd;clip-rule:evenodd;fill:#CCE9FF;" points="183.93,125.24 186.81,126.91 189.69,125.24    186.81,123.58  "/>
	<polygon style="fill-rule:evenodd;clip-rule:evenodd;fill:#CCE9FF;" points="177.77,128.8 180.65,130.47 183.53,128.8    180.65,127.14  "/>
	<polygon style="fill-rule:evenodd;clip-rule:evenodd;fill:#CCE9FF;" points="171.6,132.36 174.48,134.03 177.36,132.36    174.48,130.7  "/>
	<polygon style="fill-rule:evenodd;clip-rule:evenodd;fill:#CCE9FF;" points="165.43,135.92 168.31,137.59 171.19,135.92    168.31,134.26  "/>
	<polygon style="fill-rule:evenodd;clip-rule:evenodd;fill:#CCE9FF;" points="159.27,139.48 162.15,141.15 165.03,139.48    162.15,137.82  "/>
	<polygon style="fill-rule:evenodd;clip-rule:evenodd;fill:#CCE9FF;" points="153.1,143.05 155.98,144.71 158.86,143.05    155.98,141.38  "/>
	<polygon style="fill-rule:evenodd;clip-rule:evenodd;fill:#CCE9FF;" points="146.93,146.61 149.81,148.27 152.69,146.61    149.81,144.94  "/>
	<polygon style="fill-rule:evenodd;clip-rule:evenodd;fill:#CCE9FF;" points="140.77,150.17 143.65,151.83 146.53,150.17    143.65,148.5  "/>
	<polygon style="fill-rule:evenodd;clip-rule:evenodd;fill:#CCE9FF;" points="134.6,153.73 137.48,155.39 140.36,153.73    137.48,152.06  "/>
	<polygon style="fill-rule:evenodd;clip-rule:evenodd;fill:#CCE9FF;" points="128.43,157.29 131.31,158.95 134.19,157.29    131.31,155.62  "/>
</g>
<g>
	<polygon style="fill-rule:evenodd;clip-rule:evenodd;fill:#CCE9FF;" points="218,90.71 220.88,92.37 223.76,90.71 220.88,89.05     "/>
	<polygon style="fill-rule:evenodd;clip-rule:evenodd;fill:#CCE9FF;" points="211.84,94.27 214.72,95.94 217.6,94.27 214.72,92.61     "/>
	<polygon style="fill-rule:evenodd;clip-rule:evenodd;fill:#CCE9FF;" points="205.67,97.83 208.55,99.5 211.43,97.83 208.55,96.17     "/>
	<polygon style="fill-rule:evenodd;clip-rule:evenodd;fill:#CCE9FF;" points="199.5,101.39 202.38,103.06 205.26,101.39    202.38,99.73  "/>
	<polygon style="fill-rule:evenodd;clip-rule:evenodd;fill:#CCE9FF;" points="193.34,104.95 196.22,106.62 199.1,104.95    196.22,103.29  "/>
	<polygon style="fill-rule:evenodd;clip-rule:evenodd;fill:#CCE9FF;" points="187.17,108.51 190.05,110.18 192.93,108.51    190.05,106.85  "/>
	<polygon style="fill-rule:evenodd;clip-rule:evenodd;fill:#CCE9FF;" points="181,112.07 183.88,113.74 186.76,112.07    183.88,110.41  "/>
	<polygon style="fill-rule:evenodd;clip-rule:evenodd;fill:#CCE9FF;" points="174.83,115.63 177.72,117.3 180.6,115.63    177.72,113.97  "/>
	<polygon style="fill-rule:evenodd;clip-rule:evenodd;fill:#CCE9FF;" points="168.67,119.2 171.55,120.86 174.43,119.2    171.55,117.53  "/>
	<polygon style="fill-rule:evenodd;clip-rule:evenodd;fill:#CCE9FF;" points="162.5,122.76 165.38,124.42 168.26,122.76    165.38,121.09  "/>
	<polygon style="fill-rule:evenodd;clip-rule:evenodd;fill:#CCE9FF;" points="156.33,126.32 159.22,127.98 162.1,126.32    159.22,124.65  "/>
	<polygon style="fill-rule:evenodd;clip-rule:evenodd;fill:#CCE9FF;" points="150.17,129.88 153.05,131.54 155.93,129.88    153.05,128.21  "/>
	<polygon style="fill-rule:evenodd;clip-rule:evenodd;fill:#CCE9FF;" points="144,133.44 146.88,135.1 149.76,133.44 146.88,131.77     "/>
	<polygon style="fill-rule:evenodd;clip-rule:evenodd;fill:#CCE9FF;" points="137.83,137 140.72,138.66 143.6,137 140.72,135.33     "/>
	<polygon style="fill-rule:evenodd;clip-rule:evenodd;fill:#CCE9FF;" points="131.67,140.56 134.55,142.22 137.43,140.56    134.55,138.89  "/>
	<polygon style="fill-rule:evenodd;clip-rule:evenodd;fill:#CCE9FF;" points="125.5,144.12 128.38,145.78 131.26,144.12    128.38,142.45  "/>
	<polygon style="fill-rule:evenodd;clip-rule:evenodd;fill:#CCE9FF;" points="119.33,147.68 122.22,149.34 125.1,147.68    122.22,146.02  "/>
</g>
<path style="fill-rule:evenodd;clip-rule:evenodd;fill:#D3D3D3;" d="M80.8,128.36l41.54,23.99v4.57v2.92l-48.03-27.73l-15.93-9.2  c-1.94-1.12-3.05-3.04-3.05-5.28v-3.64v-3.85c0,1.22,0.33,2.35,0.95,3.3c0.51,0.79,1.22,1.47,2.1,1.97L80.8,128.36z"/>
<g>
	<g style="opacity:0.6;">
		<path style="fill:#CCE9FF;" d="M288.66,140.07c0.09,0,0.17-0.04,0.22-0.13c0.07-0.12,0.03-0.27-0.09-0.34l-58.45-33.75    c-0.12-0.07-0.27-0.03-0.34,0.09c-0.07,0.12-0.03,0.27,0.09,0.34l58.45,33.75C288.58,140.06,288.62,140.07,288.66,140.07z"/>
	</g>
	<g style="opacity:0.6;">
		<path style="fill:#CCE9FF;" d="M281.02,144.48c0.09,0,0.17-0.04,0.22-0.13c0.07-0.12,0.03-0.27-0.09-0.34l-58.45-33.75    c-0.12-0.07-0.27-0.03-0.34,0.09c-0.07,0.12-0.03,0.27,0.09,0.34l58.45,33.75C280.94,144.47,280.98,144.48,281.02,144.48z"/>
	</g>
	<g style="opacity:0.6;">
		<path style="fill:#CCE9FF;" d="M273.38,148.89c0.09,0,0.17-0.04,0.22-0.13c0.07-0.12,0.03-0.27-0.09-0.34l-58.45-33.75    c-0.12-0.07-0.27-0.03-0.34,0.09c-0.07,0.12-0.03,0.27,0.09,0.34l58.45,33.75C273.29,148.88,273.34,148.89,273.38,148.89z"/>
	</g>
	<g style="opacity:0.6;">
		<path style="fill:#CCE9FF;" d="M265.74,153.31c0.09,0,0.17-0.04,0.22-0.13c0.07-0.12,0.03-0.27-0.09-0.34l-58.45-33.75    c-0.12-0.07-0.27-0.03-0.34,0.09c-0.07,0.12-0.03,0.27,0.09,0.34l58.45,33.75C265.65,153.3,265.69,153.31,265.74,153.31z"/>
	</g>
	<g style="opacity:0.6;">
		<path style="fill:#CCE9FF;" d="M258.09,157.72c0.09,0,0.17-0.04,0.22-0.13c0.07-0.12,0.03-0.27-0.09-0.34l-58.45-33.75    c-0.12-0.07-0.27-0.03-0.34,0.09c-0.07,0.12-0.03,0.27,0.09,0.34l58.45,33.75C258.01,157.71,258.05,157.72,258.09,157.72z"/>
	</g>
	<g style="opacity:0.6;">
		<path style="fill:#CCE9FF;" d="M250.45,162.13c0.09,0,0.17-0.04,0.22-0.13c0.07-0.12,0.03-0.27-0.09-0.34l-58.45-33.75    c-0.12-0.07-0.27-0.03-0.34,0.09c-0.07,0.12-0.03,0.27,0.09,0.34l58.45,33.75C250.36,162.12,250.41,162.13,250.45,162.13z"/>
	</g>
	<g style="opacity:0.6;">
		<path style="fill:#CCE9FF;" d="M242.81,166.54c0.09,0,0.17-0.04,0.22-0.13c0.07-0.12,0.03-0.27-0.09-0.34l-58.45-33.75    c-0.12-0.07-0.27-0.03-0.34,0.09c-0.07,0.12-0.03,0.27,0.09,0.34l58.45,33.75C242.72,166.53,242.76,166.54,242.81,166.54z"/>
	</g>
	<g style="opacity:0.6;">
		<path style="fill:#CCE9FF;" d="M235.16,170.96c0.09,0,0.17-0.04,0.22-0.13c0.07-0.12,0.03-0.27-0.09-0.34l-58.45-33.75    c-0.12-0.07-0.27-0.03-0.34,0.09c-0.07,0.12-0.03,0.27,0.09,0.34l58.45,33.75C235.08,170.95,235.12,170.96,235.16,170.96z"/>
	</g>
	<g style="opacity:0.6;">
		<path style="fill:#CCE9FF;" d="M227.52,175.37c0.09,0,0.17-0.04,0.22-0.13c0.07-0.12,0.03-0.27-0.09-0.34l-58.45-33.75    c-0.12-0.07-0.27-0.03-0.34,0.09c-0.07,0.12-0.03,0.27,0.09,0.34l58.45,33.75C227.44,175.36,227.48,175.37,227.52,175.37z"/>
	</g>
	<g style="opacity:0.6;">
		<path style="fill:#CCE9FF;" d="M219.88,179.78c0.09,0,0.17-0.04,0.22-0.13c0.07-0.12,0.03-0.27-0.09-0.34l-58.45-33.75    c-0.12-0.07-0.27-0.03-0.34,0.09c-0.07,0.12-0.03,0.27,0.09,0.34l58.45,33.75C219.79,179.77,219.84,179.78,219.88,179.78z"/>
	</g>
	<g style="opacity:0.6;">
		<path style="fill:#CCE9FF;" d="M212.23,184.2c0.09,0,0.17-0.04,0.22-0.13c0.07-0.12,0.03-0.27-0.09-0.34l-58.45-33.75    c-0.12-0.07-0.27-0.03-0.34,0.09c-0.07,0.12-0.03,0.27,0.09,0.34l58.45,33.75C212.15,184.18,212.19,184.2,212.23,184.2z"/>
	</g>
	<g style="opacity:0.6;">
		<path style="fill:#CCE9FF;" d="M204.59,188.61c0.09,0,0.17-0.04,0.22-0.13c0.07-0.12,0.03-0.27-0.09-0.34l-58.45-33.75    c-0.12-0.07-0.27-0.03-0.34,0.09c-0.07,0.12-0.03,0.27,0.09,0.34l58.45,33.75C204.51,188.6,204.55,188.61,204.59,188.61z"/>
	</g>
	<g style="opacity:0.6;">
		<path style="fill:#CCE9FF;" d="M196.95,193.02c0.09,0,0.17-0.04,0.22-0.13c0.07-0.12,0.03-0.27-0.09-0.34l-58.45-33.75    c-0.12-0.07-0.27-0.03-0.34,0.09c-0.07,0.12-0.03,0.27,0.09,0.34l58.45,33.75C196.86,193.01,196.91,193.02,196.95,193.02z"/>
	</g>
</g>
<g>
	<g style="opacity:0.6;">
		<path style="fill:#CCE9FF;" d="M211.12,90.69c0.09,0,0.17-0.04,0.22-0.13c0.07-0.12,0.03-0.27-0.09-0.34L152.8,56.48    c-0.12-0.07-0.27-0.03-0.34,0.09c-0.07,0.12-0.03,0.27,0.09,0.34L211,90.66C211.03,90.68,211.08,90.69,211.12,90.69z"/>
	</g>
	<g style="opacity:0.6;">
		<path style="fill:#CCE9FF;" d="M203.48,95.1c0.09,0,0.17-0.04,0.22-0.13c0.07-0.12,0.03-0.27-0.09-0.34l-58.45-33.74    c-0.12-0.07-0.27-0.03-0.34,0.09c-0.07,0.12-0.03,0.27,0.09,0.34l58.45,33.75C203.39,95.09,203.43,95.1,203.48,95.1z"/>
	</g>
	<g style="opacity:0.6;">
		<path style="fill:#CCE9FF;" d="M195.83,99.51c0.09,0,0.17-0.04,0.22-0.13c0.07-0.12,0.03-0.27-0.09-0.34L137.51,65.3    c-0.12-0.07-0.27-0.03-0.34,0.09c-0.07,0.12-0.03,0.27,0.09,0.34l58.45,33.75C195.75,99.5,195.79,99.51,195.83,99.51z"/>
	</g>
	<g style="opacity:0.6;">
		<path style="fill:#CCE9FF;" d="M188.19,103.93c0.09,0,0.17-0.04,0.22-0.13c0.07-0.12,0.03-0.27-0.09-0.34l-58.45-33.74    c-0.12-0.07-0.27-0.03-0.34,0.09c-0.07,0.12-0.03,0.27,0.09,0.34l58.45,33.75C188.11,103.92,188.15,103.93,188.19,103.93z"/>
	</g>
	<g style="opacity:0.6;">
		<path style="fill:#CCE9FF;" d="M180.55,108.34c0.09,0,0.17-0.04,0.22-0.13c0.07-0.12,0.03-0.27-0.09-0.34l-58.45-33.74    c-0.12-0.07-0.27-0.03-0.34,0.09c-0.07,0.12-0.03,0.27,0.09,0.34l58.45,33.75C180.46,108.33,180.51,108.34,180.55,108.34z"/>
	</g>
	<g style="opacity:0.6;">
		<path style="fill:#CCE9FF;" d="M172.91,112.75c0.09,0,0.17-0.04,0.22-0.13c0.07-0.12,0.03-0.27-0.09-0.34l-58.45-33.74    c-0.12-0.07-0.27-0.03-0.34,0.09c-0.07,0.12-0.03,0.27,0.09,0.34l58.45,33.75C172.82,112.74,172.86,112.75,172.91,112.75z"/>
	</g>
	<g style="opacity:0.6;">
		<path style="fill:#CCE9FF;" d="M165.26,117.17c0.09,0,0.17-0.04,0.22-0.13c0.07-0.12,0.03-0.27-0.09-0.34l-58.45-33.74    c-0.12-0.07-0.27-0.03-0.34,0.09c-0.07,0.12-0.03,0.27,0.09,0.34l58.45,33.75C165.18,117.16,165.22,117.17,165.26,117.17z"/>
	</g>
	<g style="opacity:0.6;">
		<path style="fill:#CCE9FF;" d="M157.62,121.58c0.09,0,0.17-0.04,0.22-0.13c0.07-0.12,0.03-0.27-0.09-0.34L99.3,87.37    c-0.12-0.07-0.27-0.03-0.34,0.09c-0.07,0.12-0.03,0.27,0.09,0.34l58.45,33.75C157.53,121.57,157.58,121.58,157.62,121.58z"/>
	</g>
	<g style="opacity:0.6;">
		<path style="fill:#CCE9FF;" d="M149.98,125.99c0.09,0,0.17-0.05,0.22-0.13c0.07-0.12,0.03-0.27-0.09-0.34L91.65,91.78    c-0.12-0.07-0.27-0.03-0.34,0.09c-0.07,0.12-0.03,0.27,0.09,0.34l58.45,33.75C149.89,125.98,149.93,125.99,149.98,125.99z"/>
	</g>
	<g style="opacity:0.6;">
		<path style="fill:#CCE9FF;" d="M142.33,130.4c0.09,0,0.17-0.04,0.22-0.13c0.07-0.12,0.03-0.27-0.09-0.34L84.01,96.19    c-0.12-0.07-0.27-0.03-0.34,0.09c-0.07,0.12-0.03,0.27,0.09,0.34l58.45,33.75C142.25,130.39,142.29,130.4,142.33,130.4z"/>
	</g>
	<g style="opacity:0.6;">
		<path style="fill:#CCE9FF;" d="M134.69,134.82c0.09,0,0.17-0.04,0.22-0.13c0.07-0.12,0.03-0.27-0.09-0.34l-58.45-33.75    c-0.12-0.07-0.27-0.03-0.34,0.09c-0.07,0.12-0.03,0.27,0.09,0.34l58.45,33.75C134.61,134.81,134.65,134.82,134.69,134.82z"/>
	</g>
	<g style="opacity:0.6;">
		<path style="fill:#CCE9FF;" d="M127.05,139.23c0.09,0,0.17-0.04,0.22-0.13c0.07-0.12,0.03-0.27-0.09-0.34l-58.45-33.75    c-0.12-0.07-0.27-0.03-0.34,0.09c-0.07,0.12-0.03,0.27,0.09,0.34l58.45,33.75C126.96,139.22,127.01,139.23,127.05,139.23z"/>
	</g>
	<g style="opacity:0.6;">
		<path style="fill:#CCE9FF;" d="M119.41,143.64c0.09,0,0.17-0.04,0.22-0.13c0.07-0.12,0.03-0.27-0.09-0.34l-58.45-33.75    c-0.12-0.07-0.27-0.03-0.34,0.09c-0.07,0.12-0.03,0.27,0.09,0.34l58.45,33.75C119.32,143.63,119.36,143.64,119.41,143.64z"/>
	</g>
</g>
<g>
	<g>
		<path style="fill:#0D538E;" d="M230.01,100.9c0.2,0,0.4-0.11,0.5-0.3c0.35-0.66,0.53-1.47,0.53-2.4c0-1.62-0.54-3.44-1.52-5.14    c-0.98-1.7-2.29-3.08-3.69-3.88c-1.14-0.66-2.25-0.89-3.23-0.66c-1.01,0.23-1.79,0.95-2.2,2.02c-0.11,0.29,0.03,0.62,0.32,0.73    c0.29,0.11,0.62-0.03,0.73-0.32c0.28-0.72,0.76-1.18,1.41-1.33c0.69-0.16,1.54,0.03,2.42,0.54c1.23,0.71,2.4,1.94,3.28,3.47    c0.88,1.53,1.37,3.15,1.37,4.58c0,0.74-0.14,1.39-0.4,1.88c-0.15,0.28-0.04,0.62,0.24,0.76    C229.83,100.88,229.92,100.9,230.01,100.9z"/>
	</g>
	<g>
		<path style="fill:#0D538E;" d="M223.84,104.46c0.2,0,0.4-0.11,0.5-0.3c0.35-0.66,0.53-1.47,0.53-2.41c0-1.62-0.54-3.44-1.52-5.14    c-0.98-1.7-2.29-3.08-3.69-3.88c-1.14-0.66-2.25-0.89-3.23-0.66c-1.01,0.23-1.79,0.95-2.21,2.02c-0.11,0.29,0.03,0.62,0.32,0.73    c0.29,0.11,0.62-0.03,0.73-0.32c0.28-0.72,0.76-1.18,1.4-1.33c0.69-0.16,1.54,0.03,2.42,0.54c1.23,0.71,2.4,1.94,3.28,3.47    c0.88,1.53,1.37,3.15,1.37,4.57c0,0.74-0.14,1.39-0.4,1.88c-0.15,0.28-0.04,0.62,0.24,0.76    C223.66,104.44,223.75,104.46,223.84,104.46z"/>
	</g>
	<g>
		<path style="fill:#0D538E;" d="M217.67,108.02c0.2,0,0.4-0.11,0.5-0.3c0.35-0.66,0.53-1.47,0.53-2.4c0-1.62-0.54-3.44-1.52-5.14    c-0.98-1.7-2.29-3.08-3.69-3.89c-1.14-0.66-2.25-0.88-3.23-0.66c-1.01,0.23-1.79,0.95-2.2,2.02c-0.11,0.29,0.03,0.62,0.32,0.73    c0.29,0.11,0.62-0.03,0.73-0.32c0.28-0.72,0.76-1.18,1.41-1.33c0.68-0.16,1.54,0.03,2.42,0.54c1.23,0.71,2.4,1.95,3.28,3.47    c0.88,1.53,1.37,3.15,1.37,4.57c0,0.74-0.14,1.39-0.4,1.88c-0.15,0.28-0.04,0.62,0.23,0.76C217.5,108,217.59,108.02,217.67,108.02    z"/>
	</g>
	<g>
		<path style="fill:#0D538E;" d="M211.51,111.58c0.2,0,0.4-0.11,0.5-0.3c0.35-0.66,0.53-1.47,0.53-2.4c0-1.62-0.54-3.44-1.52-5.14    c-0.98-1.7-2.29-3.08-3.69-3.89c-1.13-0.66-2.25-0.89-3.23-0.66c-1.01,0.23-1.79,0.95-2.21,2.02c-0.11,0.29,0.03,0.62,0.32,0.73    c0.29,0.11,0.62-0.03,0.73-0.32c0.28-0.72,0.76-1.18,1.41-1.32c0.68-0.16,1.54,0.03,2.42,0.54c1.23,0.71,2.4,1.94,3.28,3.47    c0.88,1.53,1.37,3.15,1.37,4.58c0,0.74-0.14,1.39-0.4,1.88c-0.15,0.28-0.04,0.62,0.24,0.76    C211.33,111.56,211.42,111.58,211.51,111.58z"/>
	</g>
	<g>
		<path style="fill:#0D538E;" d="M205.34,115.14c0.2,0,0.4-0.11,0.5-0.3c0.35-0.66,0.53-1.47,0.53-2.4c0-1.62-0.54-3.44-1.52-5.14    c-0.98-1.7-2.29-3.08-3.69-3.88c-1.13-0.66-2.25-0.88-3.23-0.66c-1.01,0.23-1.79,0.95-2.2,2.02c-0.11,0.29,0.03,0.62,0.32,0.73    c0.29,0.11,0.62-0.03,0.73-0.32c0.28-0.72,0.76-1.18,1.4-1.32c0.7-0.16,1.53,0.03,2.42,0.54c1.23,0.71,2.4,1.94,3.28,3.47    c0.88,1.53,1.37,3.15,1.37,4.58c0,0.74-0.14,1.39-0.4,1.88c-0.15,0.28-0.04,0.62,0.24,0.76    C205.16,115.12,205.25,115.14,205.34,115.14z"/>
	</g>
	<g>
		<path style="fill:#0D538E;" d="M199.18,118.7c0.2,0,0.4-0.11,0.5-0.3c0.35-0.66,0.53-1.47,0.53-2.4c0-1.62-0.54-3.44-1.52-5.14    c-0.98-1.7-2.29-3.08-3.69-3.88c-1.14-0.66-2.26-0.88-3.24-0.66c-1.01,0.23-1.79,0.95-2.2,2.02c-0.11,0.29,0.03,0.62,0.32,0.73    c0.29,0.11,0.62-0.03,0.73-0.32c0.28-0.72,0.76-1.18,1.4-1.32c0.7-0.16,1.53,0.03,2.42,0.54c1.23,0.71,2.4,1.94,3.28,3.47    c0.88,1.53,1.37,3.15,1.37,4.58c0,0.74-0.14,1.39-0.4,1.88c-0.15,0.28-0.04,0.62,0.24,0.76C199,118.68,199.09,118.7,199.18,118.7z    "/>
	</g>
	<g>
		<path style="fill:#0D538E;" d="M193.01,122.26c0.2,0,0.4-0.11,0.5-0.3c0.35-0.66,0.53-1.47,0.53-2.41c0-1.62-0.54-3.44-1.52-5.14    c-0.98-1.7-2.29-3.08-3.69-3.88c-1.14-0.66-2.25-0.89-3.23-0.66c-1.01,0.23-1.79,0.95-2.21,2.02c-0.11,0.29,0.03,0.62,0.32,0.73    c0.29,0.11,0.62-0.03,0.73-0.32c0.28-0.72,0.76-1.18,1.41-1.33c0.7-0.16,1.53,0.03,2.42,0.54c1.23,0.71,2.4,1.94,3.28,3.47    c0.88,1.53,1.37,3.15,1.37,4.57c0,0.74-0.14,1.39-0.4,1.88c-0.15,0.28-0.04,0.62,0.24,0.76    C192.83,122.24,192.92,122.26,193.01,122.26z"/>
	</g>
	<g>
		<path style="fill:#0D538E;" d="M186.85,125.82c0.2,0,0.4-0.11,0.5-0.3c0.35-0.66,0.53-1.47,0.53-2.4c0-1.62-0.54-3.44-1.52-5.14    c-0.98-1.7-2.29-3.08-3.69-3.88c-1.14-0.66-2.25-0.89-3.23-0.66c-1.01,0.23-1.79,0.95-2.21,2.02c-0.11,0.29,0.03,0.62,0.32,0.73    c0.29,0.11,0.62-0.03,0.73-0.32c0.28-0.72,0.76-1.18,1.41-1.32c0.7-0.16,1.53,0.03,2.42,0.54c1.23,0.71,2.4,1.94,3.28,3.47    c0.88,1.53,1.37,3.15,1.37,4.57c0,0.74-0.14,1.39-0.4,1.88c-0.15,0.28-0.04,0.62,0.24,0.76    C186.67,125.8,186.76,125.82,186.85,125.82z"/>
	</g>
	<g>
		<path style="fill:#0D538E;" d="M180.68,129.38c0.2,0,0.4-0.11,0.5-0.3c0.35-0.66,0.53-1.47,0.53-2.4c0-1.62-0.54-3.44-1.52-5.14    c-0.98-1.7-2.29-3.08-3.69-3.88c-1.14-0.66-2.26-0.88-3.24-0.66c-1.01,0.23-1.79,0.95-2.2,2.02c-0.11,0.29,0.03,0.62,0.32,0.73    c0.29,0.11,0.62-0.03,0.73-0.32c0.28-0.72,0.76-1.18,1.4-1.33c0.7-0.16,1.53,0.03,2.42,0.54c1.23,0.71,2.4,1.94,3.28,3.47    c0.88,1.53,1.37,3.15,1.37,4.58c0,0.74-0.14,1.39-0.4,1.88c-0.15,0.28-0.04,0.62,0.24,0.76    C180.5,129.36,180.59,129.38,180.68,129.38z"/>
	</g>
	<g>
		<path style="fill:#0D538E;" d="M174.51,132.94c0.2,0,0.4-0.11,0.5-0.3c0.35-0.66,0.53-1.47,0.53-2.4c0-1.62-0.54-3.44-1.52-5.14    c-0.98-1.7-2.29-3.08-3.69-3.88c-1.14-0.66-2.25-0.89-3.23-0.66c-1.01,0.23-1.79,0.95-2.21,2.02c-0.11,0.29,0.03,0.62,0.32,0.73    c0.29,0.11,0.62-0.03,0.73-0.32c0.28-0.72,0.76-1.18,1.41-1.32c0.69-0.16,1.54,0.03,2.42,0.54c1.23,0.71,2.4,1.94,3.28,3.47    c0.88,1.53,1.37,3.15,1.37,4.58c0,0.74-0.14,1.39-0.4,1.88c-0.15,0.28-0.04,0.62,0.24,0.76    C174.33,132.92,174.43,132.94,174.51,132.94z"/>
	</g>
	<g>
		<path style="fill:#0D538E;" d="M168.35,136.5c0.2,0,0.4-0.11,0.5-0.3c0.35-0.66,0.53-1.47,0.53-2.41c0-1.62-0.54-3.44-1.52-5.14    c-0.98-1.7-2.29-3.08-3.69-3.88c-1.13-0.66-2.25-0.89-3.23-0.66c-1.01,0.23-1.79,0.95-2.21,2.02c-0.11,0.29,0.03,0.62,0.32,0.73    c0.29,0.11,0.62-0.03,0.73-0.32c0.28-0.72,0.76-1.18,1.41-1.33c0.69-0.16,1.54,0.03,2.41,0.54c1.23,0.71,2.4,1.94,3.28,3.47    c0.88,1.53,1.37,3.15,1.37,4.57c0,0.74-0.14,1.39-0.4,1.88c-0.15,0.28-0.04,0.62,0.24,0.76    C168.17,136.48,168.26,136.5,168.35,136.5z"/>
	</g>
	<g>
		<path style="fill:#0D538E;" d="M162.18,140.06c0.2,0,0.4-0.11,0.5-0.3c0.35-0.66,0.53-1.47,0.53-2.4c0-1.62-0.54-3.44-1.52-5.14    c-0.98-1.7-2.29-3.08-3.69-3.89c-1.14-0.66-2.25-0.88-3.24-0.66c-1.01,0.23-1.79,0.95-2.2,2.02c-0.11,0.29,0.03,0.62,0.32,0.73    c0.29,0.11,0.62-0.03,0.73-0.32c0.28-0.72,0.76-1.18,1.4-1.32c0.7-0.16,1.53,0.03,2.42,0.54c1.23,0.71,2.4,1.94,3.28,3.47    c0.88,1.53,1.37,3.15,1.37,4.57c0,0.74-0.14,1.39-0.4,1.88c-0.15,0.28-0.04,0.62,0.24,0.76    C162,140.04,162.09,140.06,162.18,140.06z"/>
	</g>
	<g>
		<path style="fill:#0D538E;" d="M156.02,143.62c0.2,0,0.4-0.11,0.5-0.3c0.35-0.66,0.53-1.47,0.53-2.4c0-1.62-0.54-3.44-1.52-5.14    c-0.98-1.7-2.29-3.08-3.69-3.88c-1.14-0.66-2.26-0.88-3.24-0.66c-1.01,0.23-1.79,0.95-2.2,2.02c-0.11,0.29,0.03,0.62,0.32,0.73    c0.29,0.11,0.62-0.03,0.73-0.32c0.28-0.72,0.76-1.18,1.4-1.32c0.7-0.16,1.53,0.03,2.42,0.54c1.23,0.71,2.4,1.94,3.28,3.47    c0.88,1.53,1.37,3.15,1.37,4.58c0,0.74-0.14,1.39-0.4,1.88c-0.15,0.28-0.04,0.62,0.24,0.76    C155.84,143.6,155.93,143.62,156.02,143.62z"/>
	</g>
	<g>
		<path style="fill:#0D538E;" d="M149.85,147.18c0.2,0,0.4-0.11,0.5-0.3c0.35-0.66,0.53-1.47,0.53-2.4c0-1.62-0.54-3.44-1.52-5.14    c-0.98-1.7-2.29-3.08-3.69-3.88c-1.14-0.66-2.26-0.89-3.24-0.66c-1.01,0.23-1.79,0.95-2.2,2.02c-0.11,0.29,0.03,0.62,0.32,0.73    c0.29,0.11,0.62-0.03,0.73-0.32c0.28-0.72,0.76-1.18,1.4-1.32c0.69-0.16,1.54,0.03,2.42,0.54c1.23,0.71,2.4,1.94,3.28,3.47    c0.88,1.53,1.37,3.15,1.37,4.58c0,0.74-0.14,1.39-0.4,1.88c-0.15,0.28-0.04,0.62,0.24,0.76    C149.67,147.16,149.76,147.18,149.85,147.18z"/>
	</g>
	<g>
		<path style="fill:#0D538E;" d="M143.69,150.74c0.2,0,0.4-0.11,0.5-0.3c0.35-0.66,0.53-1.47,0.53-2.4c0-1.62-0.54-3.44-1.52-5.14    c-0.98-1.7-2.29-3.08-3.69-3.88c-1.14-0.66-2.25-0.89-3.23-0.66c-1.01,0.23-1.79,0.95-2.21,2.02c-0.11,0.29,0.03,0.62,0.32,0.73    c0.29,0.11,0.62-0.03,0.73-0.32c0.28-0.72,0.76-1.18,1.41-1.33c0.7-0.16,1.53,0.03,2.42,0.54c1.23,0.71,2.4,1.94,3.28,3.47    c0.88,1.53,1.37,3.15,1.37,4.58c0,0.74-0.14,1.39-0.4,1.88c-0.15,0.28-0.04,0.62,0.24,0.76    C143.51,150.72,143.6,150.74,143.69,150.74z"/>
	</g>
	<g>
		<path style="fill:#0D538E;" d="M137.52,154.3c0.2,0,0.4-0.11,0.5-0.3c0.35-0.66,0.53-1.47,0.53-2.4c0-1.62-0.54-3.44-1.52-5.14    c-0.98-1.7-2.29-3.08-3.69-3.89c-1.14-0.66-2.25-0.89-3.23-0.66c-1.01,0.23-1.79,0.95-2.21,2.02c-0.11,0.29,0.03,0.62,0.32,0.73    c0.29,0.11,0.62-0.03,0.73-0.32c0.28-0.72,0.76-1.18,1.41-1.32c0.7-0.16,1.53,0.03,2.42,0.54c1.23,0.71,2.4,1.94,3.28,3.47    c0.88,1.53,1.37,3.15,1.37,4.57c0,0.74-0.14,1.39-0.4,1.88c-0.15,0.28-0.04,0.62,0.24,0.76    C137.34,154.28,137.43,154.3,137.52,154.3z"/>
	</g>
	<g>
		<path style="fill:#0D538E;" d="M131.35,157.86c0.2,0,0.4-0.11,0.5-0.3c0.35-0.66,0.53-1.47,0.53-2.4c0-1.62-0.54-3.44-1.52-5.14    c-0.98-1.7-2.29-3.08-3.69-3.89c-1.14-0.66-2.25-0.88-3.24-0.66c-1.01,0.23-1.79,0.95-2.2,2.02c-0.11,0.29,0.03,0.62,0.32,0.73    c0.29,0.11,0.62-0.03,0.73-0.32c0.28-0.72,0.76-1.18,1.4-1.32c0.7-0.16,1.53,0.03,2.42,0.54c1.23,0.71,2.4,1.94,3.28,3.47    c0.88,1.53,1.37,3.15,1.37,4.57c0,0.74-0.14,1.39-0.4,1.88c-0.15,0.28-0.04,0.62,0.24,0.76    C131.17,157.84,131.26,157.86,131.35,157.86z"/>
	</g>
</g>
</svg>